<?xml version="1.0" standalone="no"?>
<!DOCTYPE svg PUBLIC "-//W3C//DTD SVG 20010904//EN"
 "http://www.w3.org/TR/2001/REC-SVG-20010904/DTD/svg10.dtd">
<svg version="1.0" xmlns="http://www.w3.org/2000/svg"
 width="245.000000pt" height="206.000000pt" viewBox="0 0 245.000000 206.000000"
 preserveAspectRatio="xMidYMid meet">

<g transform="translate(0.000000,206.000000) scale(0.100000,-0.100000)"
fill="#000000" stroke="none">
<path d="M1150 2019 c0 -5 5 -7 10 -4 6 3 10 8 10 11 0 2 -4 4 -10 4 -5 0 -10
-5 -10 -11z"/>
<path d="M1195 1971 c0 -33 3 -57 8 -54 4 2 7 29 7 59 0 30 -3 54 -7 54 -5 0
-8 -27 -8 -59z"/>
<path d="M1230 2026 c0 -2 7 -6 15 -10 8 -3 15 -1 15 4 0 6 -7 10 -15 10 -8 0
-15 -2 -15 -4z"/>
<path d="M1050 2011 c0 -6 5 -13 10 -16 6 -4 19 -24 30 -46 11 -21 25 -39 30
-39 5 0 -5 25 -23 55 -30 51 -47 68 -47 46z"/>
<path d="M1306 2004 c-18 -18 -21 -52 -5 -74 8 -12 9 -9 5 10 -3 14 1 38 9 53
16 31 13 34 -9 11z"/>
<path d="M1393 2006 c10 -14 9 -54 -4 -79 -10 -21 -9 -21 10 2 26 28 26 43 4
68 -10 10 -15 14 -10 9z"/>
<path d="M930 1986 c0 -2 7 -7 16 -10 8 -3 12 -2 9 4 -6 10 -25 14 -25 6z"/>
<path d="M1465 1939 c-9 -28 -14 -53 -11 -56 3 -3 8 0 11 8 26 72 33 99 25 99
-4 0 -16 -23 -25 -51z"/>
<path d="M886 1954 c-18 -46 8 -95 50 -93 17 0 17 1 -3 9 -29 12 -46 46 -39
76 7 27 1 33 -8 8z"/>
<path d="M1602 1944 c8 -7 -29 -85 -44 -95 -5 -4 -4 -8 4 -11 8 -3 22 15 39
48 22 46 23 54 10 59 -8 3 -12 3 -9 -1z"/>
<path d="M1650 1868 c-22 -24 -26 -53 -8 -64 7 -4 8 -3 4 5 -10 16 19 60 47
71 l22 9 -22 0 c-12 1 -31 -9 -43 -21z"/>
<path d="M687 1854 c-4 -4 8 -25 25 -48 18 -23 33 -43 35 -45 2 -2 5 -2 8 1 3
2 -10 26 -28 51 -19 26 -36 44 -40 41z"/>
<path d="M806 1803 c-6 -14 -5 -15 5 -6 7 7 10 15 7 18 -3 3 -9 -2 -12 -12z"/>
<path d="M605 1777 c-16 -13 -16 -14 11 -10 32 5 58 -16 67 -52 3 -14 5 -10 6
11 2 47 -48 77 -84 51z"/>
<path d="M1807 1738 c-14 -29 -22 -57 -19 -62 2 -5 16 17 29 49 31 73 22 84
-10 13z"/>
<path d="M1670 1775 c0 -7 30 -13 34 -7 3 4 -4 9 -15 9 -10 1 -19 0 -19 -2z"/>
<path d="M1730 1740 c-9 -6 -10 -10 -3 -10 6 0 15 5 18 10 8 12 4 12 -15 0z"/>
<path d="M558 1733 c-2 -4 16 -27 39 -49 35 -34 45 -39 54 -28 9 11 8 14 -2
14 -7 0 -30 16 -50 36 -20 20 -38 32 -41 27z"/>
<path d="M480 1633 c0 -12 113 -32 123 -22 4 5 5 7 2 5 -6 -3 -69 8 -107 20
-10 3 -18 2 -18 -3z"/>
<path d="M1908 1612 c-36 -21 -45 -31 -38 -42 6 -10 10 -11 10 -3 0 7 20 24
45 39 25 14 45 28 45 30 0 9 -17 2 -62 -24z"/>
<path d="M1980 1560 c-19 -35 -48 -44 -78 -24 l-27 17 19 -21 c11 -12 30 -22
43 -22 26 0 63 32 63 55 0 21 -7 19 -20 -5z"/>
<path d="M444 1529 c-12 -4 -25 -12 -29 -18 -4 -8 2 -7 19 1 36 16 73 -2 79
-39 4 -28 4 -28 6 3 2 44 -34 69 -75 53z"/>
<path d="M1540 1490 c0 -5 5 -10 11 -10 5 0 7 5 4 10 -3 6 -8 10 -11 10 -2 0
-4 -4 -4 -10z"/>
<path d="M1371 1474 c0 -11 3 -14 6 -6 3 7 2 16 -1 19 -3 4 -6 -2 -5 -13z"/>
<path d="M1980 1466 c-30 -11 -48 -22 -39 -24 20 -4 115 33 103 40 -5 3 -34
-4 -64 -16z"/>
<path d="M390 1454 c0 -8 7 -14 15 -14 9 0 33 -9 54 -20 33 -16 40 -17 45 -5
4 10 -1 15 -15 15 -11 0 -38 9 -59 19 -32 15 -40 16 -40 5z"/>
<path d="M365 1371 c-4 -7 3 -11 17 -11 13 -1 40 -7 61 -14 20 -8 37 -10 37
-5 0 4 -18 13 -41 19 -22 6 -46 13 -54 16 -7 3 -16 1 -20 -5z"/>
<path d="M1092 1311 c-11 -7 -11 -9 0 -14 9 -3 15 1 15 9 0 8 -1 14 -1 14 -1
0 -7 -4 -14 -9z"/>
<path d="M345 1280 c-6 -20 9 -50 26 -50 4 0 19 12 33 26 15 17 30 25 40 21
20 -8 20 -3 2 12 -11 10 -21 6 -49 -19 -36 -31 -54 -27 -42 10 4 11 4 20 1 20
-2 0 -8 -9 -11 -20z"/>
<path d="M440 1230 c-13 -8 -12 -10 3 -10 9 0 17 5 17 10 0 12 -1 12 -20 0z"/>
<path d="M2048 1214 c-52 -26 -64 -40 -23 -24 36 14 85 40 85 45 0 9 -15 4
-62 -21z"/>
<path d="M423 1173 c-15 -10 -27 -12 -40 -5 -19 10 -43 6 -43 -7 0 -4 10 -7
22 -7 14 1 24 -6 26 -16 3 -14 -3 -18 -22 -18 -14 0 -26 -3 -26 -7 0 -5 26 -6
57 -3 33 2 46 6 31 8 -35 4 -35 15 -1 40 32 24 29 37 -4 15z"/>
<path d="M2047 1083 c-31 -26 -55 -48 -52 -51 6 -6 115 78 115 89 0 12 3 14
-63 -38z"/>
<path d="M907 1099 c7 -7 15 -10 18 -7 3 3 -2 9 -12 12 -14 6 -15 5 -6 -5z"/>
<path d="M402 980 c-51 -12 -52 -23 -2 -15 50 8 89 25 55 24 -11 -1 -35 -5
-53 -9z"/>
<path d="M1974 948 l-19 -21 27 18 c34 21 71 14 86 -17 7 -16 11 -18 11 -7 1
23 -31 49 -61 49 -14 0 -33 -10 -44 -22z"/>
<path d="M1563 930 c-47 -19 -56 -79 -18 -114 l24 -22 -31 4 c-23 4 -29 1 -26
-9 2 -8 19 -15 36 -17 26 -3 32 0 32 16 0 11 -7 25 -15 32 -31 26 -4 110 35
110 18 0 50 -40 50 -63 0 -12 -6 -31 -13 -42 -30 -45 -29 -55 8 -55 26 0 35 4
35 16 0 12 -7 15 -25 12 l-24 -5 24 29 c14 16 25 38 25 48 0 46 -68 81 -117
60z"/>
<path d="M841 873 c-13 -32 -30 -68 -38 -80 -13 -22 -12 -23 14 -23 18 0 24 3
15 8 -22 14 -2 42 29 42 31 0 60 -34 36 -43 -6 -3 2 -6 18 -6 l31 -1 -38 80
c-21 44 -40 80 -41 80 -2 0 -14 -26 -26 -57z m38 -30 c1 -7 -8 -13 -19 -13
-23 0 -23 0 -9 37 10 26 12 27 19 8 5 -11 9 -26 9 -32z"/>
<path d="M378 893 c7 -3 16 -2 19 1 4 3 -2 6 -13 5 -11 0 -14 -3 -6 -6z"/>
<path d="M440 850 c-24 -22 -42 -41 -40 -44 3 -2 27 16 55 40 27 24 45 44 40
44 -6 -1 -30 -18 -55 -40z"/>
<path d="M1960 881 c0 -5 9 -11 20 -14 24 -6 27 8 4 17 -21 8 -24 8 -24 -3z"/>
<path d="M2050 860 c-9 -6 -10 -10 -3 -10 6 0 15 5 18 10 8 12 4 12 -15 0z"/>
<path d="M1926 811 c-4 -5 3 -7 14 -4 11 3 31 -2 45 -11 14 -9 25 -12 25 -7 0
23 -72 42 -84 22z"/>
<path d="M500 775 c-19 -14 -40 -25 -47 -25 -7 0 -13 -4 -13 -10 0 -14 2 -13
51 14 24 14 46 23 51 20 4 -3 5 2 2 10 -3 9 -7 16 -8 16 0 -1 -17 -12 -36 -25z"/>
<path d="M1890 751 c0 -7 11 -23 25 -37 19 -19 31 -23 48 -18 37 11 39 20 3
16 -27 -3 -37 1 -55 23 -11 15 -21 22 -21 16z"/>
<path d="M565 722 c-6 -4 -10 -18 -11 -32 -1 -14 -5 -45 -9 -70 -5 -26 -4 -42
1 -37 5 5 8 9 7 10 -1 1 5 31 12 67 15 70 15 73 0 62z"/>
<path d="M1880 651 c25 -22 48 -37 53 -34 8 5 -76 73 -90 73 -4 0 12 -18 37
-39z"/>
<path d="M711 560 c0 -9 -15 -32 -32 -53 -17 -20 -27 -37 -22 -37 16 0 64 71
60 88 -4 13 -5 13 -6 2z"/>
<path d="M1750 520 c71 -38 90 -38 25 0 -27 16 -57 30 -65 30 -8 0 10 -13 40
-30z"/>
<path d="M1622 473 c-10 -4 -10 -8 0 -21 11 -13 10 -15 -4 -9 -12 4 -18 2 -18
-8 0 -9 6 -12 15 -9 9 4 15 0 15 -10 0 -9 5 -16 11 -16 5 0 7 5 3 12 -5 7 -2
9 9 5 9 -3 18 0 21 9 4 9 2 12 -5 8 -8 -4 -9 1 -4 15 4 12 2 21 -4 21 -6 0
-11 -6 -12 -12 0 -8 -3 -6 -7 3 -4 9 -13 14 -20 12z"/>
<path d="M840 460 c0 -5 -8 -6 -17 -3 -12 5 -15 2 -10 -10 3 -9 2 -17 -4 -17
-6 0 -7 -5 -4 -10 4 -6 10 -8 15 -5 4 3 10 0 12 -7 3 -9 10 -7 24 6 12 13 15
21 7 23 -7 3 -9 11 -6 19 3 8 0 14 -6 14 -6 0 -11 -4 -11 -10z"/>
<path d="M1690 282 c0 -4 14 -23 30 -42 l31 -35 -27 43 c-26 42 -34 49 -34 34z"/>
<path d="M725 244 c8 -20 15 -38 15 -40 0 -2 5 -4 10 -4 6 0 1 18 -10 40 -25
50 -35 52 -15 4z"/>
<path d="M832 220 c-5 -22 -6 -40 -2 -40 4 0 12 18 18 40 5 22 6 40 2 40 -4 0
-12 -18 -18 -40z"/>
<path d="M1593 210 c6 -22 15 -40 20 -40 5 0 6 7 3 16 -3 9 -9 27 -12 40 -3
13 -10 24 -14 24 -4 0 -2 -18 3 -40z"/>
<path d="M1540 229 c0 -5 5 -7 10 -4 6 3 10 8 10 11 0 2 -4 4 -10 4 -5 0 -10
-5 -10 -11z"/>
<path d="M937 190 c-8 -22 -12 -40 -7 -40 9 0 34 69 28 76 -3 2 -12 -14 -21
-36z"/>
<path d="M1518 190 c22 -52 35 -52 15 0 -9 22 -20 40 -24 40 -4 0 0 -18 9 -40z"/>
<path d="M990 206 c0 -9 -4 -16 -10 -16 -15 0 -12 -24 6 -46 14 -18 15 -18 4
4 -9 19 -8 27 5 42 11 12 13 20 6 25 -6 3 -11 -1 -11 -9z"/>
<path d="M1040 185 c0 -15 -5 -35 -10 -46 -6 -10 -7 -19 -2 -19 13 0 32 79 21
86 -5 3 -9 -7 -9 -21z"/>
<path d="M1396 191 c-3 -4 10 -23 29 -41 19 -19 35 -30 35 -26 0 14 -59 76
-64 67z"/>
<path d="M1117 170 c-4 -14 -6 -36 -6 -50 1 -18 4 -14 10 14 10 44 6 75 -4 36z"/>
<path d="M1220 151 c4 -16 13 -38 20 -48 9 -15 10 -15 4 7 -10 39 -23 70 -28
70 -3 0 -1 -13 4 -29z"/>
<path d="M1270 151 c0 -3 14 -12 30 -18 17 -6 30 -8 30 -4 0 3 -13 12 -30 18
-16 6 -30 8 -30 4z"/>
<path d="M1270 100 c0 -5 5 -10 11 -10 5 0 7 5 4 10 -3 6 -8 10 -11 10 -2 0
-4 -4 -4 -10z"/>
</g>
</svg>
